<svg width="24" height="24" viewBox="0 0 24 24" fill="none" xmlns="http://www.w3.org/2000/svg">
<path d="M22.5 10.8734C22.5 6.11844 17.7899 2.25 11.9999 2.25C6.2107 2.25 1.5 6.11844 1.5 10.8734C1.5 15.1363 5.23547 18.7063 10.2813 19.3814C10.6233 19.4559 11.0887 19.6095 11.2064 19.9053C11.3123 20.174 11.2757 20.5949 11.2403 20.8662C11.2403 20.8662 11.117 21.6161 11.0905 21.7757C11.0448 22.0445 10.8796 22.8265 11.9999 22.3486C13.1207 21.8707 18.0469 18.7451 20.2498 16.179C21.7715 14.4903 22.5 12.7765 22.5 10.8734Z" fill="#2CCF54"/>
<path d="M9.86647 8.56836H9.12997C9.01709 8.56836 8.92529 8.66091 8.92529 8.77468V13.3996C8.92529 13.5135 9.01709 13.6059 9.12997 13.6059H9.86647C9.97942 13.6059 10.071 13.5135 10.071 13.3996V8.77468C10.071 8.66091 9.97942 8.56836 9.86647 8.56836Z" fill="white"/>
<path d="M14.936 8.56836H14.1995C14.0866 8.56836 13.995 8.66091 13.995 8.77468V11.5224L11.8984 8.66008C11.8596 8.60128 11.7968 8.57218 11.7281 8.56836H10.9919C10.8789 8.56836 10.7871 8.66091 10.7871 8.77468V13.3996C10.7871 13.5135 10.8789 13.6059 10.9919 13.6059H11.7281C11.8412 13.6059 11.9328 13.5135 11.9328 13.3996V10.6527L14.0321 13.5186C14.0698 13.5726 14.1338 13.6059 14.1995 13.6059H14.936C15.0491 13.6059 15.1406 13.5135 15.1406 13.3996V8.77468C15.1406 8.66091 15.0491 8.56836 14.936 8.56836Z" fill="white"/>
<path d="M8.0913 12.4477H6.0901V8.77489C6.0901 8.66074 5.99852 8.56812 5.8858 8.56812H5.14909C5.03617 8.56812 4.94458 8.66074 4.94458 8.77489V13.3989C4.94458 13.5112 5.03577 13.6059 5.14889 13.6059H8.0913C8.20418 13.6059 8.29538 13.5131 8.29538 13.3989V12.6544C8.29538 12.5403 8.20418 12.4477 8.0913 12.4477Z" fill="white"/>
<path d="M19.0029 9.72627C19.1159 9.72627 19.2071 9.63394 19.2071 9.51957V8.77504C19.2071 8.66089 19.1159 8.56812 19.0029 8.56812H16.0607C15.9477 8.56812 15.8562 8.66261 15.8562 8.77489V13.3992C15.8562 13.5111 15.9475 13.6059 16.0603 13.6059H19.0029C19.1159 13.6059 19.2071 13.5131 19.2071 13.3992V12.6544C19.2071 12.5405 19.1159 12.4477 19.0029 12.4477H17.0019V11.666H19.0029C19.1159 11.666 19.2071 11.5734 19.2071 11.4592V10.7148C19.2071 10.6006 19.1159 10.5078 19.0029 10.5078H17.0019V9.72627H19.0029Z" fill="white"/>
</svg>
